<?xml version="1.0" encoding="UTF-8" standalone="no"?>
<svg
   xmlns:dc="http://purl.org/dc/elements/1.1/"
   xmlns:cc="http://creativecommons.org/ns#"
   xmlns:rdf="http://www.w3.org/1999/02/22-rdf-syntax-ns#"
   xmlns:svg="http://www.w3.org/2000/svg"
   xmlns="http://www.w3.org/2000/svg"
   xmlns:sodipodi="http://sodipodi.sourceforge.net/DTD/sodipodi-0.dtd"
   xmlns:inkscape="http://www.inkscape.org/namespaces/inkscape"
   width="48"
   height="42"
   viewBox="0 -0.5 48 42"
   version="1.1"
   id="svg5364"
   sodipodi:docname="github-icon-text.svg"
   inkscape:version="0.92.4 (5da689c313, 2019-01-14)">
  <metadata
     id="metadata5370">
    <rdf:RDF>
      <cc:Work
         rdf:about="">
        <dc:format>image/svg+xml</dc:format>
        <dc:type
           rdf:resource="http://purl.org/dc/dcmitype/StillImage" />
        <dc:title></dc:title>
      </cc:Work>
    </rdf:RDF>
  </metadata>
  <defs
     id="defs5368" />
  <sodipodi:namedview
     pagecolor="#ffffff"
     bordercolor="#666666"
     borderopacity="1"
     objecttolerance="10"
     gridtolerance="10"
     guidetolerance="10"
     inkscape:pageopacity="0"
     inkscape:pageshadow="2"
     inkscape:window-width="2020"
     inkscape:window-height="1036"
     id="namedview5366"
     showgrid="false"
     inkscape:zoom="9.44"
     inkscape:cx="38.9269"
     inkscape:cy="7.3230556"
     inkscape:window-x="0"
     inkscape:window-y="50"
     inkscape:window-maximized="1"
     inkscape:current-layer="svg5364" />
  <path
     d="m 23.992295,-0.498856 h 0.10206 c 2.460331,0 4.76264,0.68931 6.734635,1.889135 l -0.06035,-0.03486 c 2.053202,1.230186 3.715736,2.93378 4.882253,4.972471 l 0.03402,0.06522 c 1.141278,1.989213 1.815071,4.380992 1.815071,6.933572 0,6.078964 -3.822183,11.244846 -9.137904,13.109242 l -0.09548,0.02923 c -0.06913,0.02249 -0.148147,0.03486 -0.229352,0.03486 -0.177776,0 -0.342384,-0.06072 -0.475167,-0.161926 l 0.0022,0.0011 c -0.140464,-0.129315 -0.228255,-0.31598 -0.228255,-0.52401 0,-0.0056 0,-0.01125 0,-0.01574 v 0.0011 q 0,-0.05398 0.0088,-1.378618 0.0088,-1.324643 0.0088,-2.42214 c 0.0077,-0.08433 0.01207,-0.181042 0.01207,-0.279996 0,-0.890592 -0.354455,-1.695723 -0.926191,-2.277081 0.678182,-0.06859 1.290522,-0.183292 1.885302,-0.342969 l -0.0834,0.01912 c 0.6288,-0.179918 1.177491,-0.419432 1.686677,-0.72192 l -0.03402,0.01912 c 0.55747,-0.314856 1.029345,-0.715173 1.417817,-1.189705 l 0.0065,-0.0079 c 0.408225,-0.535254 0.727563,-1.164966 0.9218,-1.849778 l 0.0099,-0.03936 c 0.229352,-0.768024 0.361038,-1.650744 0.361038,-2.56495 0,-0.0506 0,-0.10233 -0.0011,-0.15293 v 0.0079 c 0,-0.02474 0.0011,-0.05285 0.0011,-0.08097 0,-1.403357 -0.528938,-2.679646 -1.392578,-3.632085 l 0.0033,0.0034 c 0.18436,-0.494773 0.290805,-1.066011 0.290805,-1.663112 0,-0.729791 -0.15912,-1.420225 -0.443342,-2.039816 l 0.01207,0.02924 c -0.12625,-0.02474 -0.270007,-0.03936 -0.418153,-0.03936 -0.366526,0 -0.712202,0.08771 -1.019469,0.242889 l 0.01317,-0.0056 C 29.033669,5.670108 28.500341,5.937735 27.99774,6.250342 l 0.0417,-0.02474 -0.668306,0.431802 C 26.359349,6.360539 25.197221,6.189618 23.996685,6.189618 c -1.200536,0 -2.362665,0.170921 -3.464436,0.490275 l 0.08888,-0.02249 Q 20.340206,6.459494 19.873819,6.170501 C 19.464496,5.929862 18.98055,5.697093 18.477949,5.501433 l -0.07242,-0.02474 C 18.08399,5.303522 17.703199,5.202318 17.298265,5.202318 c -0.136076,0 -0.269956,0.01124 -0.399447,0.03373 l 0.01427,-0.0023 c -0.27215,0.58923 -0.43127,1.280788 -0.43127,2.010579 0,0.597101 0.106446,1.169464 0.30178,1.696847 l -0.01098,-0.03261 c -0.861445,0.949065 -1.389287,2.225356 -1.389287,3.628713 0,0.02811 0,0.05734 0.0011,0.08547 v -0.0045 c -0.0011,0.04385 -0.0011,0.09446 -0.0011,0.146183 0,0.909708 0.131686,1.789055 0.377501,2.616675 l -0.01646,-0.06409 c 0.207406,0.723044 0.522354,1.351631 0.932775,1.903753 l -0.0099,-0.01462 c 0.388472,0.489151 0.858152,0.891717 1.390383,1.194203 l 0.02414,0.01237 c 0.474069,0.28337 1.023858,0.522885 1.602179,0.690434 l 0.05048,0.01237 c 0.51138,0.140561 1.123719,0.255258 1.750324,0.319354 l 0.05048,0.0045 c -0.472973,0.48128 -0.787921,1.124485 -0.860348,1.841906 l -0.0011,0.01349 c -0.227158,0.113573 -0.491627,0.205781 -0.767071,0.265379 l -0.02304,0.0045 c -0.28093,0.05735 -0.602464,0.08996 -0.932775,0.08996 -0.02415,0 -0.04829,0 -0.07242,0 h 0.0033 c -0.432369,-0.009 -0.829621,-0.15293 -1.157739,-0.39132 l 0.0065,0.0045 c -0.407094,-0.291173 -0.736308,-0.669 -0.966758,-1.108673 l -0.0077,-0.01686 c -0.217208,-0.377917 -0.503625,-0.690524 -0.842716,-0.930039 l -0.0099,-0.0068 c -0.246912,-0.190038 -0.537718,-0.33847 -0.85157,-0.427304 l -0.01756,-0.0045 -0.351162,-0.05398 c -0.02524,-0.0023 -0.05487,-0.0033 -0.0845,-0.0033 -0.153633,0 -0.299584,0.03149 -0.432368,0.08659 l 0.0077,-0.0033 q -0.140464,0.08096 -0.08779,0.206905 c 0.04279,0.0967 0.09548,0.179918 0.15912,0.253009 l -0.0011,-0.0011 c 0.06694,0.08096 0.142659,0.151806 0.224963,0.213652 l 0.0033,0.0023 0.122907,0.08996 c 0.310559,0.166424 0.566249,0.398067 0.760486,0.678064 l 0.0044,0.0068 c 0.2096,0.266503 0.39396,0.567866 0.542107,0.890592 l 0.01098,0.02699 0.175581,0.41381 c 0.148147,0.452043 0.417005,0.82987 0.768168,1.10312 l 0.0055,0.0045 c 0.329215,0.26313 0.726467,0.452043 1.159934,0.537505 l 0.01756,0.0023 c 0.362136,0.07197 0.783531,0.116947 1.213705,0.125943 h 0.0077 c 0.04938,0.0023 0.106447,0.0023 0.164608,0.0023 0.286417,0 0.567347,-0.02361 0.841693,-0.06972 l -0.02963,0.0045 0.403836,-0.07197 q 0,0.684811 0.0088,1.594519 0.0088,0.909709 0.0088,0.981675 v 0.01574 c 0,0.20803 -0.08779,0.394694 -0.228255,0.52401 h -0.0011 c -0.130589,0.100076 -0.294099,0.160801 -0.472973,0.160801 -0.0823,0 -0.161314,-0.01237 -0.234839,-0.03598 l 0.0055,0.0011 c -5.40906,-1.899434 -9.227951,-7.065317 -9.227951,-13.145406 0,-2.550332 0.671598,-4.939861 1.8447,-6.99317 l -0.03512,0.06522 c 1.200536,-2.104038 2.863071,-3.807632 4.852625,-5.00296 l 0.06365,-0.03486 C 19.134183,0.18706 21.434297,-0.5 23.890239,-0.5 h 0.107544 -0.0055 z m -8.384001,19.865147 q 0.05267,-0.125942 -0.122907,-0.215901 -0.175581,-0.05398 -0.228256,0.03598 -0.05267,0.125942 0.122907,0.215901 0.158024,0.10795 0.228256,-0.03598 z m 0.545399,0.612844 q 0.122907,-0.08996 -0.03512,-0.287868 -0.175581,-0.161926 -0.28093,-0.05398 -0.122906,0.08996 0.03512,0.287868 0.174484,0.176544 0.28093,0.05285 z m 0.526744,0.80963 q 0.158023,-0.125943 0,-0.341844 -0.140465,-0.233893 -0.298488,-0.10795 -0.158024,0.08996 0,0.323851 0.158023,0.233893 0.298488,0.125943 z m 0.73744,0.756777 q 0.140466,-0.143933 -0.07023,-0.341842 -0.210697,-0.215902 -0.351163,-0.05398 -0.158022,0.143935 0.07023,0.341844 0.210697,0.215902 0.351162,0.04947 z m 1.00191,0.449795 q 0.05267,-0.197909 -0.228255,-0.287868 -0.263371,-0.07197 -0.333604,0.125941 -0.07023,0.19791 0.228255,0.269877 0.263372,0.109075 0.333604,-0.10795 z m 1.107259,0.08996 q 0,-0.233892 -0.298488,-0.19791 -0.280929,0 -0.280929,0.19791 0,0.233893 0.298488,0.197909 0.280929,0.0011 0.280929,-0.196784 z m 1.019468,-0.179917 q -0.03512,-0.197909 -0.316046,-0.161926 -0.28093,0.05398 -0.245813,0.269876 0.03512,0.215901 0.316046,0.143934 0.28093,-0.07197 0.246911,-0.251884 z"
     id="path5362"
     style="fill:#f0f0e4;fill-opacity:1;stroke-width:1.11085081"
     inkscape:connector-curvature="0" />
  <text
     xml:space="preserve"
     style="font-style:normal;font-variant:normal;font-weight:bold;font-stretch:normal;font-size:16.22450066px;line-height:1.25;font-family:Roboto;-inkscape-font-specification:'Roboto, Bold';font-variant-ligatures:normal;font-variant-caps:normal;font-variant-numeric:normal;font-feature-settings:normal;text-align:start;letter-spacing:0px;word-spacing:0px;writing-mode:lr-tb;text-anchor:start;fill:#f0f0e4;fill-opacity:1;stroke:none;stroke-width:1.01403129"
     x="-0.52624357"
     y="41.923855"
     id="text846"
     transform="scale(1.0140313,0.98616286)"><tspan
       sodipodi:role="line"
       id="tspan844"
       x="-0.52624357"
       y="41.923855"
       style="stroke-width:1.01403129">Github</tspan></text>
</svg>
