<?xml version="1.0" encoding="UTF-8" standalone="no"?>
<svg
   xmlns:dc="http://purl.org/dc/elements/1.1/"
   xmlns:cc="http://creativecommons.org/ns#"
   xmlns:rdf="http://www.w3.org/1999/02/22-rdf-syntax-ns#"
   xmlns:svg="http://www.w3.org/2000/svg"
   xmlns="http://www.w3.org/2000/svg"
   xmlns:sodipodi="http://sodipodi.sourceforge.net/DTD/sodipodi-0.dtd"
   xmlns:inkscape="http://www.inkscape.org/namespaces/inkscape"
   width="60"
   height="34"
   viewBox="0 -0.5 60 34"
   version="1.1"
   id="svg5364"
   sodipodi:docname="github-icon-text.svg"
   inkscape:version="0.92.4 (5da689c313, 2019-01-14)">
  <metadata
     id="metadata5370">
    <rdf:RDF>
      <cc:Work
         rdf:about="">
        <dc:format>image/svg+xml</dc:format>
        <dc:type
           rdf:resource="http://purl.org/dc/dcmitype/StillImage" />
        <dc:title></dc:title>
      </cc:Work>
    </rdf:RDF>
  </metadata>
  <defs
     id="defs5368" />
  <sodipodi:namedview
     pagecolor="#ffffff"
     bordercolor="#666666"
     borderopacity="1"
     objecttolerance="10"
     gridtolerance="10"
     guidetolerance="10"
     inkscape:pageopacity="0"
     inkscape:pageshadow="2"
     inkscape:window-width="2020"
     inkscape:window-height="1036"
     id="namedview5366"
     showgrid="false"
     inkscape:zoom="9.44"
     inkscape:cx="56.812765"
     inkscape:cy="-0.91234078"
     inkscape:window-x="0"
     inkscape:window-y="50"
     inkscape:window-maximized="1"
     inkscape:current-layer="svg5364" />
  <path
     d="m 29.993,-0.499 h 0.093 c 2.242,0 4.34,0.613 6.137,1.68 L 36.168,1.15 c 1.871,1.094 3.386,2.609 4.449,4.422 l 0.031,0.058 c 1.04,1.769 1.654,3.896 1.654,6.166 0,5.406 -3.483,10 -8.327,11.658 l -0.087,0.026 c -0.063,0.02 -0.135,0.031 -0.209,0.031 -0.162,0 -0.312,-0.054 -0.433,-0.144 l 0.002,10e-4 C 33.12,23.253 33.04,23.087 33.04,22.902 c 0,-0.005 0,-0.01 0,-0.014 v 10e-4 q 0,-0.048 0.008,-1.226 0.008,-1.178 0.008,-2.154 c 0.007,-0.075 0.011,-0.161 0.011,-0.249 0,-0.792 -0.323,-1.508 -0.844,-2.025 0.618,-0.061 1.176,-0.163 1.718,-0.305 l -0.076,0.017 c 0.573,-0.16 1.073,-0.373 1.537,-0.642 l -0.031,0.017 c 0.508,-0.28 0.938,-0.636 1.292,-1.058 l 0.006,-0.007 c 0.372,-0.476 0.663,-1.036 0.84,-1.645 l 0.009,-0.035 c 0.209,-0.683 0.329,-1.468 0.329,-2.281 0,-0.045 0,-0.091 -0.001,-0.136 v 0.007 c 0,-0.022 0.001,-0.047 0.001,-0.072 0,-1.248 -0.482,-2.383 -1.269,-3.23 l 0.003,0.003 c 0.168,-0.44 0.265,-0.948 0.265,-1.479 0,-0.649 -0.145,-1.263 -0.404,-1.814 l 0.011,0.026 C 36.338,4.579 36.207,4.566 36.072,4.566 c -0.334,0 -0.649,0.078 -0.929,0.216 l 0.012,-0.005 c -0.568,0.21 -1.054,0.448 -1.512,0.726 L 33.681,5.481 33.072,5.865 C 32.15,5.601 31.091,5.449 29.997,5.449 c -1.094,0 -2.153,0.152 -3.157,0.436 l 0.081,-0.02 Q 26.665,5.689 26.24,5.432 C 25.867,5.218 25.426,5.011 24.968,4.837 L 24.902,4.815 c -0.293,-0.154 -0.64,-0.244 -1.009,-0.244 -0.124,0 -0.246,0.01 -0.364,0.03 l 0.013,-0.002 c -0.248,0.524 -0.393,1.139 -0.393,1.788 0,0.531 0.097,1.04 0.275,1.509 l -0.01,-0.029 c -0.785,0.844 -1.266,1.979 -1.266,3.227 0,0.025 0,0.051 0.001,0.076 v -0.004 c -0.001,0.039 -0.001,0.084 -0.001,0.13 0,0.809 0.12,1.591 0.344,2.327 l -0.015,-0.057 c 0.189,0.643 0.476,1.202 0.85,1.693 l -0.009,-0.013 c 0.354,0.435 0.782,0.793 1.267,1.062 l 0.022,0.011 c 0.432,0.252 0.933,0.465 1.46,0.614 l 0.046,0.011 c 0.466,0.125 1.024,0.227 1.595,0.284 l 0.046,0.004 c -0.431,0.428 -0.718,1 -0.784,1.638 l -10e-4,0.012 c -0.207,0.101 -0.448,0.183 -0.699,0.236 l -0.021,0.004 c -0.256,0.051 -0.549,0.08 -0.85,0.08 -0.022,0 -0.044,0 -0.066,0 h 0.003 C 24.942,19.194 24.58,19.066 24.281,18.854 l 0.006,0.004 C 23.916,18.599 23.616,18.263 23.406,17.872 L 23.399,17.857 C 23.201,17.521 22.94,17.243 22.631,17.03 l -0.009,-0.006 c -0.225,-0.169 -0.49,-0.301 -0.776,-0.38 L 21.83,16.64 21.51,16.592 c -0.023,-0.002 -0.05,-0.003 -0.077,-0.003 -0.14,0 -0.273,0.028 -0.394,0.077 l 0.007,-0.003 q -0.128,0.072 -0.08,0.184 c 0.039,0.086 0.087,0.16 0.145,0.225 L 21.11,17.071 c 0.061,0.072 0.13,0.135 0.205,0.19 l 0.003,0.002 0.112,0.08 c 0.283,0.148 0.516,0.354 0.693,0.603 l 0.004,0.006 c 0.191,0.237 0.359,0.505 0.494,0.792 l 0.01,0.024 0.16,0.368 c 0.135,0.402 0.38,0.738 0.7,0.981 l 0.005,0.004 c 0.3,0.234 0.662,0.402 1.057,0.478 l 0.016,0.002 c 0.33,0.064 0.714,0.104 1.106,0.112 h 0.007 c 0.045,0.002 0.097,0.002 0.15,0.002 0.261,0 0.517,-0.021 0.767,-0.062 l -0.027,0.004 0.368,-0.064 q 0,0.609 0.008,1.418 0.008,0.809 0.008,0.873 v 0.014 c 0,0.185 -0.08,0.351 -0.208,0.466 h -0.001 c -0.119,0.089 -0.268,0.143 -0.431,0.143 -0.075,0 -0.147,-0.011 -0.214,-0.032 l 0.005,10e-4 c -4.929,-1.689 -8.409,-6.283 -8.409,-11.69 0,-2.268 0.612,-4.393 1.681,-6.219 L 19.347,5.625 C 20.441,3.754 21.956,2.239 23.769,1.176 L 23.827,1.145 C 25.566,0.111 27.662,-0.5 29.9,-0.5 h 0.098 -0.005 z m -7.64,17.666 q 0.048,-0.112 -0.112,-0.192 -0.16,-0.048 -0.208,0.032 -0.048,0.112 0.112,0.192 0.144,0.096 0.208,-0.032 z m 0.497,0.545 q 0.112,-0.08 -0.032,-0.256 -0.16,-0.144 -0.256,-0.048 -0.112,0.08 0.032,0.256 0.159,0.157 0.256,0.047 z m 0.48,0.72 q 0.144,-0.112 0,-0.304 -0.128,-0.208 -0.272,-0.096 -0.144,0.08 0,0.288 0.144,0.208 0.272,0.112 z m 0.672,0.673 q 0.128,-0.128 -0.064,-0.304 -0.192,-0.192 -0.32,-0.048 -0.144,0.128 0.064,0.304 0.192,0.192 0.32,0.044 z m 0.913,0.4 q 0.048,-0.176 -0.208,-0.256 -0.24,-0.064 -0.304,0.112 -0.064,0.176 0.208,0.24 0.24,0.097 0.304,-0.096 z m 1.009,0.08 q 0,-0.208 -0.272,-0.176 -0.256,0 -0.256,0.176 0,0.208 0.272,0.176 0.256,0.001 0.256,-0.175 z m 0.929,-0.16 q -0.032,-0.176 -0.288,-0.144 -0.256,0.048 -0.224,0.24 0.032,0.192 0.288,0.128 0.256,-0.064 0.225,-0.224 z"
     id="path5362"
     style="fill:#f0f0e4;fill-opacity:1"
     inkscape:connector-curvature="0" />
  <text
     xml:space="preserve"
     style="font-style:normal;font-variant:normal;font-weight:bold;font-stretch:normal;font-size:15.52714729px;line-height:1.25;font-family:'Roboto Condensed';-inkscape-font-specification:'Roboto Condensed, Bold';font-variant-ligatures:normal;font-variant-caps:normal;font-variant-numeric:normal;font-feature-settings:normal;text-align:center;letter-spacing:0px;word-spacing:0px;writing-mode:lr-tb;text-anchor:middle;fill:#f0f0e4;fill-opacity:1;stroke:none;stroke-width:1.164536"
     x="21.083179"
     y="47.294895"
     id="text4652"
     transform="scale(1.4163143,0.70605798)"><tspan
       sodipodi:role="line"
       id="tspan4650"
       x="21.083179"
       y="47.294895"
       style="fill:#f0f0e4;fill-opacity:1;stroke-width:1.164536">Github</tspan></text>
</svg>
