<?xml version="1.0" encoding="UTF-8" standalone="no"?>
<!-- Generator: Adobe Illustrator 16.0.0, SVG Export Plug-In . SVG Version: 6.00 Build 0)  -->

<svg
   xmlns:dc="http://purl.org/dc/elements/1.1/"
   xmlns:cc="http://creativecommons.org/ns#"
   xmlns:rdf="http://www.w3.org/1999/02/22-rdf-syntax-ns#"
   xmlns:svg="http://www.w3.org/2000/svg"
   xmlns="http://www.w3.org/2000/svg"
   xmlns:sodipodi="http://sodipodi.sourceforge.net/DTD/sodipodi-0.dtd"
   xmlns:inkscape="http://www.inkscape.org/namespaces/inkscape"
   version="1.1"
   id="Capa_1"
   x="0px"
   y="0px"
   width="48"
   height="48"
   viewBox="0 0 48 48"
   xml:space="preserve"
   sodipodi:docname="play-video-icon.svg"
   inkscape:version="0.92.4 (5da689c313, 2019-01-14)"><metadata
   id="metadata1884"><rdf:RDF><cc:Work
       rdf:about=""><dc:format>image/svg+xml</dc:format><dc:type
         rdf:resource="http://purl.org/dc/dcmitype/StillImage" /><dc:title></dc:title></cc:Work></rdf:RDF></metadata><defs
   id="defs1882" /><sodipodi:namedview
   pagecolor="#ffffff"
   bordercolor="#666666"
   borderopacity="1"
   objecttolerance="10"
   gridtolerance="10"
   guidetolerance="10"
   inkscape:pageopacity="0"
   inkscape:pageshadow="2"
   inkscape:window-width="2020"
   inkscape:window-height="1036"
   id="namedview1880"
   showgrid="false"
   inkscape:zoom="4.5415791"
   inkscape:cx="-65.62465"
   inkscape:cy="-8.4020364"
   inkscape:window-x="0"
   inkscape:window-y="50"
   inkscape:window-maximized="1"
   inkscape:current-layer="Capa_1" />
<g
   id="g1847"
   style="fill:#f0f0e4;fill-opacity:1"
   transform="scale(0.08164543,0.08164529)">
	<g
   id="g1845"
   style="fill:#f0f0e4;fill-opacity:1">
		<g
   id="g1837"
   style="fill:#f0f0e4;fill-opacity:1">
			<path
   d="m 210.604,460.299 c 10.876,10.205 25.07,15.824 39.965,15.824 14.448,0 28.33,-5.404 39.086,-15.216 L 425.542,336.955 c 12.048,-10.99 18.959,-26.646 18.959,-42.954 0,-16.308 -6.91,-31.964 -18.959,-42.955 L 289.656,127.095 c -10.758,-9.812 -24.638,-15.216 -39.086,-15.216 -14.896,0 -29.089,5.619 -39.965,15.823 -5.68,5.329 -10.155,11.629 -13.3,18.727 -3.298,7.442 -4.97,15.389 -4.97,23.62 v 247.904 c 0,8.231 1.672,16.179 4.971,23.621 3.144,7.097 7.618,13.397 13.298,18.725 z m 24.57,-290.25 c 0,-9.17 7.511,-15.33 15.396,-15.33 3.546,0 7.168,1.247 10.216,4.026 l 135.887,123.952 c 6.651,6.068 6.651,16.54 0,22.607 L 260.785,429.257 c -3.048,2.78 -6.669,4.026 -10.216,4.026 -7.884,0 -15.396,-6.161 -15.396,-15.33 z"
   id="path1833"
   style="fill:#f0f0e4;fill-opacity:1"
   inkscape:connector-curvature="0" />
			<path
   d="m 250.569,476.623 c -15.024,0 -29.339,-5.668 -40.308,-15.96 -5.729,-5.374 -10.242,-11.729 -13.414,-18.888 -3.327,-7.506 -5.014,-15.521 -5.014,-23.823 V 170.048 c 0,-8.302 1.687,-16.316 5.013,-23.822 3.172,-7.159 7.686,-13.514 13.415,-18.889 10.969,-10.291 25.284,-15.958 40.308,-15.958 14.572,0 28.573,5.45 39.423,15.347 l 135.887,123.951 c 12.152,11.085 19.122,26.876 19.122,43.325 0,16.447 -6.97,32.238 -19.122,43.323 L 289.992,461.276 c -10.849,9.897 -24.85,15.347 -39.423,15.347 z m 0,-364.245 c -14.769,0 -28.84,5.571 -39.623,15.688 -5.631,5.283 -10.067,11.529 -13.186,18.564 -3.269,7.377 -4.927,15.256 -4.927,23.417 v 247.904 c 0,8.161 1.658,16.04 4.928,23.419 3.118,7.035 7.553,13.28 13.185,18.563 10.783,10.117 24.854,15.688 39.623,15.688 14.323,0 28.084,-5.357 38.749,-15.085 L 425.205,336.584 c 11.945,-10.896 18.796,-26.418 18.796,-42.585 0,-16.167 -6.851,-31.689 -18.796,-42.585 L 289.319,127.464 c -10.666,-9.728 -24.427,-15.086 -38.75,-15.086 z m 0,321.405 c -9.818,0 -15.896,-8.217 -15.896,-15.83 V 170.049 c 0,-7.613 6.078,-15.83 15.896,-15.83 3.922,0 7.571,1.438 10.553,4.157 l 135.887,123.952 c 3.274,2.987 5.151,7.242 5.151,11.674 0,4.432 -1.878,8.686 -5.151,11.672 L 261.122,429.626 c -2.981,2.72 -6.631,4.157 -10.553,4.157 z M 235.673,170.049 v 247.904 c 0,7.132 5.695,14.83 14.896,14.83 3.669,0 7.085,-1.347 9.879,-3.896 L 396.336,304.935 c 3.066,-2.798 4.825,-6.783 4.825,-10.934 0,-4.152 -1.759,-8.138 -4.825,-10.936 L 260.448,159.115 c -2.794,-2.549 -6.21,-3.896 -9.879,-3.896 -7.321,0 -14.895,5.547 -14.896,14.83 z"
   id="path1835"
   style="fill:#f0f0e4;fill-opacity:1"
   inkscape:connector-curvature="0" />
		</g>
		<g
   id="g1843"
   style="fill:#f0f0e4;fill-opacity:1">
			<path
   d="m 86.452,501.459 c 26.937,26.937 58.315,48.089 93.265,62.871 36.207,15.314 74.642,23.079 114.239,23.079 39.597,0 78.033,-7.766 114.239,-23.079 34.95,-14.782 66.328,-35.935 93.265,-62.871 26.937,-26.936 48.09,-58.316 62.872,-93.266 15.314,-36.206 23.078,-74.642 23.078,-114.239 0,-39.597 -7.765,-78.033 -23.078,-114.239 C 549.55,144.766 528.396,113.387 501.46,86.451 474.524,59.515 443.146,38.36 408.195,23.578 371.988,8.264 333.552,0.5 293.955,0.5 254.358,0.5 215.923,8.265 179.716,23.578 144.766,38.36 113.388,59.515 86.451,86.451 59.514,113.388 38.361,144.766 23.578,179.716 8.265,215.923 0.5,254.358 0.5,293.955 c 0,39.598 7.765,78.032 23.079,114.239 14.782,34.95 35.936,66.328 62.873,93.265 z M 293.955,43.34 c 138.411,0 250.615,112.204 250.615,250.615 0,138.41 -112.204,250.614 -250.615,250.614 C 155.544,544.569 43.34,432.365 43.34,293.955 43.34,155.544 155.544,43.34 293.955,43.34 Z"
   id="path1839"
   style="fill:#f0f0e4;fill-opacity:1"
   inkscape:connector-curvature="0" />
			<path
   d="m 293.955,587.909 c -39.665,0 -78.166,-7.778 -114.434,-23.118 C 144.511,549.983 113.079,528.794 86.098,501.812 59.116,474.83 37.926,443.398 23.119,408.388 7.779,372.119 0,333.618 0,293.955 0,254.29 7.778,215.789 23.118,179.521 37.926,144.512 59.115,113.079 86.097,86.097 113.081,59.113 144.513,37.924 179.52,23.117 215.79,7.778 254.291,0 293.955,0 c 39.666,0 78.167,7.778 114.433,23.118 35.008,14.806 66.439,35.996 93.424,62.98 26.982,26.982 48.172,58.415 62.979,93.423 15.339,36.269 23.117,74.77 23.117,114.434 0,39.667 -7.778,78.167 -23.117,114.433 -14.809,35.011 -35.997,66.443 -62.979,93.425 -26.981,26.982 -58.414,48.171 -93.424,62.979 -36.269,15.339 -74.77,23.117 -114.433,23.117 z M 293.955,1 C 254.426,1 216.056,8.751 179.911,24.039 145.023,38.795 113.698,59.913 86.805,86.805 59.914,113.696 38.797,145.021 24.039,179.911 8.752,216.055 1,254.425 1,293.955 1,333.483 8.752,371.854 24.04,408 c 14.757,34.89 35.875,66.215 62.766,93.105 26.89,26.89 58.215,48.007 93.106,62.764 36.144,15.288 74.514,23.04 114.044,23.04 39.529,0 77.898,-7.752 114.044,-23.04 34.89,-14.757 66.215,-35.873 93.105,-62.764 26.89,-26.891 48.008,-58.216 62.765,-93.106 15.288,-36.143 23.039,-74.512 23.039,-114.044 0,-39.53 -7.751,-77.9 -23.039,-114.044 C 549.113,145.022 527.996,113.697 501.105,86.806 474.212,59.912 442.887,38.794 408,24.039 371.856,8.751 333.486,1 293.955,1 Z m 0,544.069 c -67.075,0 -130.136,-26.12 -177.565,-73.55 C 68.961,424.089 42.84,361.03 42.84,293.955 42.84,226.88 68.961,163.819 116.39,116.39 163.819,68.961 226.88,42.84 293.955,42.84 c 67.075,0 130.135,26.121 177.565,73.55 47.43,47.429 73.55,110.49 73.55,177.565 0,67.075 -26.12,130.135 -73.55,177.565 -47.43,47.43 -110.49,73.549 -177.565,73.549 z m 0,-501.229 c -66.808,0 -129.617,26.017 -176.858,73.257 -47.24,47.241 -73.257,110.05 -73.257,176.858 0,66.808 26.017,129.617 73.257,176.857 47.241,47.24 110.05,73.257 176.858,73.257 66.808,0 129.618,-26.017 176.858,-73.257 47.24,-47.24 73.257,-110.05 73.257,-176.857 0,-66.808 -26.017,-129.617 -73.257,-176.858 C 423.573,69.857 360.763,43.84 293.955,43.84 Z"
   id="path1841"
   style="fill:#f0f0e4;fill-opacity:1"
   inkscape:connector-curvature="0" />
		</g>
	</g>
</g>
<g
   id="g1849"
   transform="translate(0,-539.909)">
</g>
<g
   id="g1851"
   transform="translate(0,-539.909)">
</g>
<g
   id="g1853"
   transform="translate(0,-539.909)">
</g>
<g
   id="g1855"
   transform="translate(0,-539.909)">
</g>
<g
   id="g1857"
   transform="translate(0,-539.909)">
</g>
<g
   id="g1859"
   transform="translate(0,-539.909)">
</g>
<g
   id="g1861"
   transform="translate(0,-539.909)">
</g>
<g
   id="g1863"
   transform="translate(0,-539.909)">
</g>
<g
   id="g1865"
   transform="translate(0,-539.909)">
</g>
<g
   id="g1867"
   transform="translate(0,-539.909)">
</g>
<g
   id="g1869"
   transform="translate(0,-539.909)">
</g>
<g
   id="g1871"
   transform="translate(0,-539.909)">
</g>
<g
   id="g1873"
   transform="translate(0,-539.909)">
</g>
<g
   id="g1875"
   transform="translate(0,-539.909)">
</g>
<g
   id="g1877"
   transform="translate(0,-539.909)">
</g>
</svg>