<?xml version="1.0" encoding="UTF-8" standalone="no"?>
<!-- Generator: Adobe Illustrator 19.0.0, SVG Export Plug-In . SVG Version: 6.00 Build 0)  -->

<svg
   xmlns:dc="http://purl.org/dc/elements/1.1/"
   xmlns:cc="http://creativecommons.org/ns#"
   xmlns:rdf="http://www.w3.org/1999/02/22-rdf-syntax-ns#"
   xmlns:svg="http://www.w3.org/2000/svg"
   xmlns="http://www.w3.org/2000/svg"
   xmlns:sodipodi="http://sodipodi.sourceforge.net/DTD/sodipodi-0.dtd"
   xmlns:inkscape="http://www.inkscape.org/namespaces/inkscape"
   version="1.1"
   id="Layer_1"
   x="0px"
   y="0px"
   viewBox="0 0 20 20"
   xml:space="preserve"
   sodipodi:docname="view-icon.svg"
   inkscape:version="0.92.4 (5da689c313, 2019-01-14)"
   width="20"
   height="20"><metadata
   id="metadata936"><rdf:RDF><cc:Work
       rdf:about=""><dc:format>image/svg+xml</dc:format><dc:type
         rdf:resource="http://purl.org/dc/dcmitype/StillImage" /><dc:title></dc:title></cc:Work></rdf:RDF></metadata><defs
   id="defs934" /><sodipodi:namedview
   pagecolor="#ffffff"
   bordercolor="#666666"
   borderopacity="1"
   objecttolerance="10"
   gridtolerance="10"
   guidetolerance="10"
   inkscape:pageopacity="0"
   inkscape:pageshadow="2"
   inkscape:window-width="2020"
   inkscape:window-height="1036"
   id="namedview932"
   showgrid="false"
   inkscape:zoom="35.664698"
   inkscape:cx="14.985168"
   inkscape:cy="9.5952902"
   inkscape:window-x="0"
   inkscape:window-y="50"
   inkscape:window-maximized="1"
   inkscape:current-layer="Layer_1" />
<g
   transform="matrix(0.03906247,0,0,0.0439301,1.0121294e-5,-1.2900357)"
   id="g899">
	<g
   id="g897">
		<g
   id="g895">
			<path
   d="M 505.752,241.915 416.664,152.827 C 327.927,64.09 184.073,64.09 95.337,152.827 L 6.248,241.915 c -8.331,8.331 -8.331,21.839 0,30.17 l 89.088,89.088 c 88.737,88.737 232.591,88.737 321.327,0 l 89.088,-89.088 c 8.332,-8.331 8.332,-21.839 0.001,-30.17 z m -119.258,89.088 c -72.074,72.074 -188.913,72.074 -260.987,0 L 51.503,257 125.506,182.997 c 72.074,-72.074 188.913,-72.074 260.987,0 L 460.497,257 Z"
   id="path891"
   inkscape:connector-curvature="0" />
			<path
   d="m 256,150.333 c -58.907,0 -106.667,47.759 -106.667,106.667 0,58.908 47.76,106.667 106.667,106.667 58.907,0 106.667,-47.76 106.667,-106.667 0,-58.907 -47.76,-106.667 -106.667,-106.667 z M 256,321 c -35.343,0 -64,-28.657 -64,-64 0,-35.343 28.657,-64 64,-64 35.343,0 64,28.657 64,64 0,35.343 -28.657,64 -64,64 z"
   id="path893"
   inkscape:connector-curvature="0" />
		</g>
	</g>
</g>
<g
   id="g901"
   transform="translate(0,-492)">
</g>
<g
   id="g903"
   transform="translate(0,-492)">
</g>
<g
   id="g905"
   transform="translate(0,-492)">
</g>
<g
   id="g907"
   transform="translate(0,-492)">
</g>
<g
   id="g909"
   transform="translate(0,-492)">
</g>
<g
   id="g911"
   transform="translate(0,-492)">
</g>
<g
   id="g913"
   transform="translate(0,-492)">
</g>
<g
   id="g915"
   transform="translate(0,-492)">
</g>
<g
   id="g917"
   transform="translate(0,-492)">
</g>
<g
   id="g919"
   transform="translate(0,-492)">
</g>
<g
   id="g921"
   transform="translate(0,-492)">
</g>
<g
   id="g923"
   transform="translate(0,-492)">
</g>
<g
   id="g925"
   transform="translate(0,-492)">
</g>
<g
   id="g927"
   transform="translate(0,-492)">
</g>
<g
   id="g929"
   transform="translate(0,-492)">
</g>
</svg>